<svg width="24" height="24" viewBox="0 0 24 24" fill="none" xmlns="http://www.w3.org/2000/svg">
<g clip-path="url(#clip0_2_24)">
<path d="M5.52547 4.60787H18.4746C18.9256 4.60787 19.2925 4.24093 19.2925 3.7899V2.75381C19.2925 2.30279 18.9256 1.93585 18.4746 1.93585H14.9773C14.582 0.815565 13.3968 0 12 0C10.6033 0 9.41805 0.815565 9.0227 1.93585H5.52547C5.07444 1.93585 4.7075 2.30279 4.7075 2.75381V3.7899C4.7075 4.24093 5.07444 4.60787 5.52547 4.60787Z" fill="#C72727"/>
<path d="M18.5053 17.3435C18.5194 17.2902 18.5291 17.2347 18.5326 17.177L18.8069 12.6821C18.8252 12.3808 18.8509 11.8901 18.864 11.5883L19.0659 6.95498C19.0755 6.73506 18.9977 6.52724 18.847 6.36987C18.6963 6.21244 18.4921 6.12573 18.2719 6.12573H5.72816C5.50758 6.12573 5.30352 6.21271 5.15362 6.37063C5.00371 6.52855 4.92748 6.73686 4.93898 6.95717L5.47208 17.1744C5.47508 17.2324 5.48429 17.2881 5.49798 17.3416C4.45377 17.9687 3.75337 19.112 3.75337 20.4161C3.75337 22.3923 5.36133 24.0001 7.33775 24.0001C8.37024 24.0001 9.30151 23.5608 9.95621 22.8601C9.97001 22.8607 9.98342 22.8623 9.99755 22.8623H14.0458C14.7003 23.5617 15.6306 24.0001 16.662 24.0001C18.6386 24.0001 20.2466 22.3924 20.2466 20.4161C20.2466 19.1133 19.5477 17.971 18.5053 17.3435ZM7.3378 19.0535C8.08935 19.0535 8.7008 19.6647 8.7008 20.4161C8.7008 21.1674 8.08935 21.7786 7.3378 21.7786C6.58653 21.7786 5.97534 21.1674 5.97534 20.4161C5.97534 19.6647 6.58653 19.0535 7.3378 19.0535ZM16.662 19.0535C17.4135 19.0535 18.025 19.6647 18.025 20.4161C18.025 21.1674 17.4135 21.7786 16.662 21.7786C15.9107 21.7786 15.2995 21.1674 15.2995 20.4161C15.2995 19.6647 15.9107 19.0535 16.662 19.0535Z" fill="#C72727"/>
</g>
<defs>
<clipPath id="clip0_2_24">
<rect width="24" height="24" fill="white"/>
</clipPath>
</defs>
</svg>
