<svg width="238" height="64" viewBox="0 0 238 64" fill="none" xmlns="http://www.w3.org/2000/svg">
<path d="M70.517 39V21.5455H74.2074V29.2415H74.4375L80.7188 21.5455H85.142L78.6648 29.3608L85.2188 39H80.804L76.0227 31.8239L74.2074 34.0398V39H70.517ZM91.9496 39.2557C90.6257 39.2557 89.4808 38.9744 88.5149 38.4119C87.5547 37.8437 86.8132 37.054 86.2905 36.0426C85.7678 35.0256 85.5064 33.8466 85.5064 32.5057C85.5064 31.1534 85.7678 29.9716 86.2905 28.9602C86.8132 27.9432 87.5547 27.1534 88.5149 26.5909C89.4808 26.0227 90.6257 25.7386 91.9496 25.7386C93.2734 25.7386 94.4155 26.0227 95.3757 26.5909C96.3416 27.1534 97.0859 27.9432 97.6087 28.9602C98.1314 29.9716 98.3928 31.1534 98.3928 32.5057C98.3928 33.8466 98.1314 35.0256 97.6087 36.0426C97.0859 37.054 96.3416 37.8437 95.3757 38.4119C94.4155 38.9744 93.2734 39.2557 91.9496 39.2557ZM91.9666 36.4432C92.5689 36.4432 93.0717 36.2727 93.4751 35.9318C93.8786 35.5852 94.1825 35.1136 94.3871 34.517C94.5973 33.9205 94.7024 33.2415 94.7024 32.4801C94.7024 31.7188 94.5973 31.0398 94.3871 30.4432C94.1825 29.8466 93.8786 29.375 93.4751 29.0284C93.0717 28.6818 92.5689 28.5085 91.9666 28.5085C91.3587 28.5085 90.8473 28.6818 90.4325 29.0284C90.0234 29.375 89.7138 29.8466 89.5036 30.4432C89.299 31.0398 89.1967 31.7188 89.1967 32.4801C89.1967 33.2415 89.299 33.9205 89.5036 34.517C89.7138 35.1136 90.0234 35.5852 90.4325 35.9318C90.8473 36.2727 91.3587 36.4432 91.9666 36.4432ZM106.668 39.2557C105.327 39.2557 104.174 38.9716 103.208 38.4034C102.248 37.8295 101.509 37.0341 100.992 36.017C100.481 35 100.225 33.8295 100.225 32.5057C100.225 31.1648 100.484 29.9886 101.001 28.9773C101.523 27.9602 102.265 27.1676 103.225 26.5994C104.185 26.0256 105.327 25.7386 106.651 25.7386C107.793 25.7386 108.793 25.946 109.651 26.3608C110.509 26.7756 111.188 27.358 111.688 28.108C112.188 28.858 112.464 29.7386 112.515 30.75H109.089C108.992 30.0966 108.737 29.571 108.322 29.1733C107.913 28.7699 107.376 28.5682 106.711 28.5682C106.148 28.5682 105.657 28.7216 105.237 29.0284C104.822 29.3295 104.498 29.7699 104.265 30.3494C104.032 30.929 103.915 31.6307 103.915 32.4545C103.915 33.2898 104.029 34 104.256 34.5852C104.489 35.1705 104.816 35.6165 105.237 35.9233C105.657 36.2301 106.148 36.3835 106.711 36.3835C107.126 36.3835 107.498 36.2983 107.827 36.1278C108.163 35.9574 108.438 35.7102 108.654 35.3864C108.876 35.0568 109.021 34.6619 109.089 34.2017H112.515C112.458 35.2017 112.185 36.0824 111.697 36.8438C111.214 37.5994 110.546 38.1903 109.694 38.6165C108.842 39.0426 107.833 39.2557 106.668 39.2557ZM120.754 39.2557C119.43 39.2557 118.286 38.9744 117.32 38.4119C116.359 37.8437 115.618 37.054 115.095 36.0426C114.572 35.0256 114.311 33.8466 114.311 32.5057C114.311 31.1534 114.572 29.9716 115.095 28.9602C115.618 27.9432 116.359 27.1534 117.32 26.5909C118.286 26.0227 119.43 25.7386 120.754 25.7386C122.078 25.7386 123.22 26.0227 124.18 26.5909C125.146 27.1534 125.891 27.9432 126.413 28.9602C126.936 29.9716 127.197 31.1534 127.197 32.5057C127.197 33.8466 126.936 35.0256 126.413 36.0426C125.891 37.054 125.146 37.8437 124.18 38.4119C123.22 38.9744 122.078 39.2557 120.754 39.2557ZM120.771 36.4432C121.374 36.4432 121.876 36.2727 122.28 35.9318C122.683 35.5852 122.987 35.1136 123.192 34.517C123.402 33.9205 123.507 33.2415 123.507 32.4801C123.507 31.7188 123.402 31.0398 123.192 30.4432C122.987 29.8466 122.683 29.375 122.28 29.0284C121.876 28.6818 121.374 28.5085 120.771 28.5085C120.163 28.5085 119.652 28.6818 119.237 29.0284C118.828 29.375 118.518 29.8466 118.308 30.4432C118.104 31.0398 118.001 31.7188 118.001 32.4801C118.001 33.2415 118.104 33.9205 118.308 34.517C118.518 35.1136 118.828 35.5852 119.237 35.9318C119.652 36.2727 120.163 36.4432 120.771 36.4432ZM133.189 31.4318V39H129.558V25.9091H133.018V28.2188H133.172C133.462 27.4574 133.947 26.8551 134.629 26.4119C135.311 25.9631 136.138 25.7386 137.109 25.7386C138.018 25.7386 138.811 25.9375 139.487 26.3352C140.163 26.733 140.689 27.3011 141.064 28.0398C141.439 28.7727 141.626 29.6477 141.626 30.6648V39H137.996V31.3125C138.001 30.5114 137.797 29.8864 137.382 29.4375C136.967 28.983 136.396 28.7557 135.669 28.7557C135.18 28.7557 134.749 28.8608 134.374 29.071C134.004 29.2812 133.714 29.5881 133.504 29.9915C133.3 30.3892 133.195 30.8693 133.189 31.4318ZM151.451 25.9091V28.6364H143.567V25.9091H151.451ZM145.357 22.7727H148.988V34.9773C148.988 35.3125 149.039 35.5739 149.141 35.7614C149.244 35.9432 149.386 36.071 149.567 36.1449C149.755 36.2187 149.971 36.2557 150.215 36.2557C150.386 36.2557 150.556 36.2415 150.727 36.2131C150.897 36.179 151.028 36.1534 151.119 36.1364L151.69 38.8381C151.508 38.8949 151.252 38.9602 150.923 39.0341C150.593 39.1136 150.192 39.1619 149.721 39.179C148.846 39.2131 148.079 39.0966 147.42 38.8295C146.766 38.5625 146.258 38.1477 145.894 37.5852C145.531 37.0227 145.352 36.3125 145.357 35.4545V22.7727ZM157.549 39.2472C156.714 39.2472 155.969 39.1023 155.316 38.8125C154.663 38.517 154.146 38.0824 153.765 37.5085C153.39 36.929 153.202 36.2074 153.202 35.3438C153.202 34.6165 153.336 34.0057 153.603 33.5114C153.87 33.017 154.234 32.6193 154.694 32.3182C155.154 32.017 155.677 31.7898 156.262 31.6364C156.853 31.483 157.472 31.375 158.12 31.3125C158.881 31.233 159.495 31.1591 159.961 31.0909C160.427 31.017 160.765 30.9091 160.975 30.767C161.185 30.625 161.29 30.4148 161.29 30.1364V30.0852C161.29 29.5455 161.12 29.1278 160.779 28.8324C160.444 28.5369 159.967 28.3892 159.347 28.3892C158.694 28.3892 158.174 28.5341 157.788 28.8239C157.401 29.108 157.146 29.4659 157.021 29.8977L153.663 29.625C153.833 28.8295 154.168 28.142 154.668 27.5625C155.168 26.9773 155.813 26.5284 156.603 26.2159C157.398 25.8977 158.319 25.7386 159.364 25.7386C160.092 25.7386 160.788 25.8239 161.452 25.9943C162.123 26.1648 162.717 26.429 163.234 26.7869C163.756 27.1449 164.168 27.6051 164.469 28.1676C164.771 28.7244 164.921 29.392 164.921 30.1705V39H161.478V37.1847H161.376C161.165 37.5938 160.884 37.9545 160.532 38.267C160.18 38.5739 159.756 38.8153 159.262 38.9915C158.768 39.1619 158.197 39.2472 157.549 39.2472ZM158.589 36.7415C159.123 36.7415 159.594 36.6364 160.004 36.4261C160.413 36.2102 160.734 35.9205 160.967 35.5568C161.2 35.1932 161.316 34.7812 161.316 34.321V32.9318C161.202 33.0057 161.046 33.0739 160.847 33.1364C160.654 33.1932 160.435 33.2472 160.191 33.2983C159.947 33.3437 159.702 33.3864 159.458 33.4261C159.214 33.4602 158.992 33.4915 158.793 33.5199C158.367 33.5824 157.995 33.6818 157.677 33.8182C157.359 33.9545 157.112 34.1392 156.935 34.3722C156.759 34.5994 156.671 34.8835 156.671 35.2244C156.671 35.7188 156.85 36.0966 157.208 36.358C157.572 36.6136 158.032 36.7415 158.589 36.7415ZM175.894 30.392V33.2727H167.934V30.392H175.894ZM177.665 24.5881V21.5455H192V24.5881H186.656V39H183.009V24.5881H177.665ZM198.309 39.2557C196.985 39.2557 195.84 38.9744 194.874 38.4119C193.914 37.8437 193.173 37.054 192.65 36.0426C192.127 35.0256 191.866 33.8466 191.866 32.5057C191.866 31.1534 192.127 29.9716 192.65 28.9602C193.173 27.9432 193.914 27.1534 194.874 26.5909C195.84 26.0227 196.985 25.7386 198.309 25.7386C199.633 25.7386 200.775 26.0227 201.735 26.5909C202.701 27.1534 203.445 27.9432 203.968 28.9602C204.491 29.9716 204.752 31.1534 204.752 32.5057C204.752 33.8466 204.491 35.0256 203.968 36.0426C203.445 37.054 202.701 37.8437 201.735 38.4119C200.775 38.9744 199.633 39.2557 198.309 39.2557ZM198.326 36.4432C198.928 36.4432 199.431 36.2727 199.835 35.9318C200.238 35.5852 200.542 35.1136 200.746 34.517C200.957 33.9205 201.062 33.2415 201.062 32.4801C201.062 31.7188 200.957 31.0398 200.746 30.4432C200.542 29.8466 200.238 29.375 199.835 29.0284C199.431 28.6818 198.928 28.5085 198.326 28.5085C197.718 28.5085 197.207 28.6818 196.792 29.0284C196.383 29.375 196.073 29.8466 195.863 30.4432C195.658 31.0398 195.556 31.7188 195.556 32.4801C195.556 33.2415 195.658 33.9205 195.863 34.517C196.073 35.1136 196.383 35.5852 196.792 35.9318C197.207 36.2727 197.718 36.4432 198.326 36.4432ZM213.369 39H207.181V21.5455H213.42C215.175 21.5455 216.687 21.8949 217.954 22.5938C219.221 23.2869 220.195 24.2841 220.877 25.5852C221.565 26.8864 221.908 28.4432 221.908 30.2557C221.908 32.0739 221.565 33.6364 220.877 34.9432C220.195 36.25 219.215 37.2528 217.937 37.9517C216.664 38.6506 215.141 39 213.369 39ZM210.871 35.8381H213.215C214.306 35.8381 215.224 35.6449 215.968 35.2585C216.718 34.8665 217.281 34.2614 217.656 33.4432C218.036 32.6193 218.227 31.5568 218.227 30.2557C218.227 28.9659 218.036 27.9119 217.656 27.0938C217.281 26.2756 216.721 25.6733 215.977 25.2869C215.232 24.9006 214.315 24.7074 213.224 24.7074H210.871V35.8381ZM230.489 39.2557C229.165 39.2557 228.02 38.9744 227.054 38.4119C226.094 37.8437 225.352 37.054 224.83 36.0426C224.307 35.0256 224.045 33.8466 224.045 32.5057C224.045 31.1534 224.307 29.9716 224.83 28.9602C225.352 27.9432 226.094 27.1534 227.054 26.5909C228.02 26.0227 229.165 25.7386 230.489 25.7386C231.812 25.7386 232.955 26.0227 233.915 26.5909C234.881 27.1534 235.625 27.9432 236.148 28.9602C236.67 29.9716 236.932 31.1534 236.932 32.5057C236.932 33.8466 236.67 35.0256 236.148 36.0426C235.625 37.054 234.881 37.8437 233.915 38.4119C232.955 38.9744 231.812 39.2557 230.489 39.2557ZM230.506 36.4432C231.108 36.4432 231.611 36.2727 232.014 35.9318C232.418 35.5852 232.722 35.1136 232.926 34.517C233.136 33.9205 233.241 33.2415 233.241 32.4801C233.241 31.7188 233.136 31.0398 232.926 30.4432C232.722 29.8466 232.418 29.375 232.014 29.0284C231.611 28.6818 231.108 28.5085 230.506 28.5085C229.898 28.5085 229.386 28.6818 228.972 29.0284C228.563 29.375 228.253 29.8466 228.043 30.4432C227.838 31.0398 227.736 31.7188 227.736 32.4801C227.736 33.2415 227.838 33.9205 228.043 34.517C228.253 35.1136 228.563 35.5852 228.972 35.9318C229.386 36.2727 229.898 36.4432 230.506 36.4432Z" fill="black"/>
<g clip-path="url(#clip0_2_10)">
<path d="M24.3489 27.1035L27.2251 32.7123C27.3453 32.9466 27.5674 33.091 27.8077 33.091C28.048 33.091 28.2701 32.9466 28.3903 32.7123L31.2667 27.1035C32.3228 28.3251 33.7974 29.0861 35.4277 29.0861C38.6313 29.0861 41.2377 26.152 41.2377 22.5455C41.2377 18.9389 38.6313 16.0046 35.4277 16.0046C32.2241 16.0046 29.6179 18.9388 29.6179 22.5455C29.6179 23.733 29.9019 24.8465 30.3952 25.8076H25.2202C25.7137 24.8465 25.9977 23.733 25.9977 22.5455C25.9977 18.9389 23.3913 16.0046 20.1877 16.0046C16.9841 16.0046 14.3777 18.9388 14.3777 22.5455C14.3777 26.152 16.9841 29.0861 20.1877 29.0861C21.818 29.0861 23.2927 28.3251 24.3489 27.1035ZM35.4277 17.5194C37.8894 17.5194 39.8922 19.7741 39.8922 22.5456C39.8922 25.317 37.8894 27.5716 35.4277 27.5716C32.966 27.5716 30.9633 25.317 30.9633 22.5456C30.9633 19.774 32.9661 17.5194 35.4277 17.5194ZM29.601 27.3222L27.8077 30.819L26.0145 27.3222H29.601ZM15.7232 22.5455C15.7232 19.774 17.726 17.5192 20.1877 17.5192C22.6495 17.5192 24.6523 19.774 24.6523 22.5455C24.6523 25.3168 22.6495 27.5714 20.1877 27.5714C17.726 27.5714 15.7232 25.3168 15.7232 22.5455Z" fill="black"/>
<path d="M22.4989 22.5455C22.4989 21.1108 21.4621 19.9436 20.1877 19.9436C18.9133 19.9436 17.8766 21.1108 17.8766 22.5455C17.8766 23.98 18.9134 25.1471 20.1877 25.1471C21.4621 25.1471 22.4989 23.98 22.4989 22.5455ZM19.2221 22.5455C19.2221 21.946 19.6553 21.4583 20.1877 21.4583C20.7202 21.4583 21.1534 21.946 21.1534 22.5455C21.1534 23.1448 20.7202 23.6324 20.1877 23.6324C19.6552 23.6324 19.2221 23.1448 19.2221 22.5455Z" fill="black"/>
<path d="M35.4277 25.1471C36.7021 25.1471 37.7389 23.98 37.7389 22.5455C37.7389 21.1108 36.7021 19.9436 35.4277 19.9436C34.1533 19.9436 33.1166 21.1108 33.1166 22.5455C33.1166 23.98 34.1534 25.1471 35.4277 25.1471ZM35.4277 21.4583C35.9602 21.4583 36.3934 21.946 36.3934 22.5455C36.3934 23.1448 35.9602 23.6324 35.4277 23.6324C34.8952 23.6324 34.4621 23.1448 34.4621 22.5455C34.4621 21.946 34.8953 21.4583 35.4277 21.4583Z" fill="black"/>
<path d="M31.3858 46.207C33.5167 46.207 35.2859 44.4323 35.5896 42.1268C37.6374 41.7848 39.2139 39.7933 39.2139 37.3944C39.2139 36.9761 38.9127 36.6371 38.5412 36.6371C38.1697 36.6371 37.8685 36.9761 37.8685 37.3944C37.8685 39.1975 36.5651 40.6646 34.9631 40.6646C33.3614 40.6646 32.0582 39.1976 32.0582 37.3944C32.0582 36.9761 31.757 36.6371 31.3855 36.6371C31.014 36.6371 30.7128 36.9761 30.7128 37.3944C30.7128 39.1975 29.4095 40.6646 27.8075 40.6646C26.2057 40.6646 24.9025 39.1976 24.9025 37.3944C24.9025 36.9761 24.6013 36.6371 24.2298 36.6371C23.8583 36.6371 23.5571 36.9761 23.5571 37.3944C23.5571 39.1975 22.2538 40.6646 20.6518 40.6646C19.05 40.6646 17.7469 39.1976 17.7469 37.3944C17.7469 36.9761 17.4456 36.6371 17.0741 36.6371C16.7027 36.6371 16.4014 36.9761 16.4014 37.3944C16.4014 39.7933 17.9779 41.7851 20.0258 42.1268C20.3295 44.4323 22.0988 46.207 24.2298 46.207C25.7305 46.207 27.0512 45.3262 27.8077 44.0004C28.5644 45.3262 29.8851 46.207 31.3858 46.207ZM31.3856 39.9728C32.0153 41.0761 33.0358 41.8701 34.2257 42.1056C33.9456 43.5816 32.7792 44.6923 31.3858 44.6923C29.9922 44.6923 28.8257 43.5815 28.5456 42.1056C29.7355 41.8701 30.756 41.0761 31.3856 39.9728ZM24.23 44.6923C22.8365 44.6923 21.67 43.5815 21.3899 42.1056C22.5798 41.8701 23.6003 41.0761 24.23 39.9728C24.8596 41.0761 25.8801 41.8702 27.0702 42.1056C26.7899 43.5816 25.6234 44.6923 24.23 44.6923Z" fill="black"/>
<path d="M59.9581 45.6319C59.8604 45.3347 59.6087 45.1375 59.3273 45.1375H53.0858C52.9385 45.1375 52.7953 45.1919 52.6781 45.2923L44.8298 52.0242H35.3632C38.3202 50.5998 40.5122 48.1538 41.9929 44.5992C43.5474 44.3738 45.2988 42.9732 46.7656 40.7497C48.4349 38.2195 49.4748 34.9961 49.6189 31.9061C49.7774 28.5066 49.2404 26.1255 47.9773 24.6269C47.1047 23.5915 45.9223 23.0229 44.3765 22.8985V1.13444C44.3765 0.811058 44.1941 0.523273 43.9223 0.418156C43.6507 0.312887 43.3496 0.413915 43.1731 0.668832L37.0285 9.54714H18.5872L12.4425 0.668983C12.2658 0.413915 11.9647 0.312887 11.6932 0.418308C11.4214 0.523273 11.239 0.81121 11.239 1.13459V22.8988C9.69335 23.0232 8.51098 23.5918 7.63834 24.6271C6.37511 26.1258 5.83815 28.5067 5.99651 31.9064C6.1406 34.9969 7.17874 38.2202 8.84438 40.7495C10.3051 42.9677 12.0499 44.3662 13.601 44.5966C14.1074 45.8224 14.6958 46.9136 15.3685 47.8725C16.6546 49.7057 18.2633 51.0848 20.2181 52.0243H3.82054C3.61011 52.0243 3.41166 52.1352 3.28452 52.3239L0.136749 56.9968C-0.0177062 57.226 -0.043404 57.5337 0.070285 57.7914C0.183974 58.0489 0.417406 58.2117 0.672769 58.2117H47.5726L53.2288 62.9797C53.3464 63.0788 53.4881 63.1309 53.632 63.1309C53.6837 63.1309 53.7356 63.1242 53.7869 63.1106C53.9809 63.0588 54.1446 62.9129 54.2337 62.7122L56.4183 57.7931C56.5636 57.4659 56.4805 57.0687 56.2208 56.849L52.385 53.6031L59.7653 46.4693C59.979 46.263 60.0558 45.9289 59.9581 45.6319ZM16.4245 46.9336C13.8408 43.2508 12.5848 37.3643 12.5848 28.9375C12.5848 28.5191 12.2836 28.1802 11.9121 28.1802C11.5406 28.1802 11.2394 28.5191 11.2394 28.9375C11.2394 34.6247 11.8069 39.2253 12.9611 42.8379C10.5781 41.6971 7.59084 37.1996 7.34032 31.8268C7.20417 28.9057 7.63282 26.8341 8.61445 25.6696C9.34192 24.8066 10.4206 24.387 11.9121 24.387C12.2836 24.387 12.5848 24.048 12.5848 23.6297C12.5848 23.6286 12.5845 23.6277 12.5845 23.6266V3.33857L17.728 10.7702C17.8555 10.9544 18.0513 11.0621 18.2586 11.0621H37.3573C37.5648 11.0621 37.7604 10.9544 37.8879 10.7702L43.0313 3.33872V23.6291C43.0313 23.6294 43.0313 23.6295 43.0313 23.6298C43.0313 24.0482 43.3325 24.3871 43.704 24.3871C45.1954 24.3871 46.274 24.8067 47.0015 25.6698C47.9831 26.8342 48.4116 28.9058 48.2755 31.827C48.0247 37.2064 45.0265 41.7073 42.6385 42.8408C43.8117 39.2016 44.3764 34.5903 44.3764 28.9376C44.3764 28.5193 44.0752 28.1803 43.7037 28.1803C43.3322 28.1803 43.031 28.5193 43.031 28.9376C43.031 44.9744 38.5598 51.8992 28.0972 52.0243H27.5C22.3405 51.9624 18.8152 50.3411 16.4245 46.9336ZM2.02722 56.6972L4.15461 53.5388H21.7598V55.2503C21.7598 55.7758 21.8834 56.2689 22.0976 56.6972H2.02722ZM25.6764 55.2503C25.6764 56.0482 25.0997 56.6972 24.3908 56.6972C23.6819 56.6972 23.1053 56.0482 23.1053 55.2503V53.5388H25.6763V55.2503H25.6764ZM26.6841 56.6972C26.8983 56.2689 27.0218 55.7758 27.0218 55.2503V53.5388H28.5938V55.2503C28.5938 55.7758 28.7173 56.2689 28.9315 56.6972H26.6841ZM32.5101 55.2503C32.5101 56.0482 31.9333 56.6972 31.2244 56.6972C30.5156 56.6972 29.9391 56.0482 29.9391 55.2503V53.5388H32.51V55.2503H32.5101ZM50.8736 53.0678C50.719 53.2173 50.6329 53.4377 50.6395 53.667C50.6461 53.8965 50.7447 54.11 50.9077 54.2478L54.9643 57.6805L53.3907 61.2239L48.1999 56.8484C48.0835 56.7502 47.9419 56.6972 47.7966 56.6972H33.518C33.732 56.2689 33.8557 55.7758 33.8557 55.2503V53.5388H45.0569C45.2043 53.5388 45.3474 53.4845 45.4646 53.384L53.313 46.6523H57.5112L50.8736 53.0678Z" fill="black"/>
</g>
<defs>
<clipPath id="clip0_2_10">
<rect width="60" height="64" fill="white"/>
</clipPath>
</defs>
</svg>
