<svg width="18" height="24" viewBox="0 0 18 24" fill="none" xmlns="http://www.w3.org/2000/svg">
<path d="M2.52547 4.60787H15.4746C15.9256 4.60787 16.2925 4.24093 16.2925 3.7899V2.75381C16.2925 2.30279 15.9256 1.93585 15.4746 1.93585H11.9773C11.582 0.815565 10.3968 0 9.00004 0C7.60328 0 6.41805 0.815565 6.0227 1.93585H2.52547C2.07444 1.93585 1.7075 2.30279 1.7075 2.75381V3.7899C1.7075 4.24093 2.07444 4.60787 2.52547 4.60787Z" fill="#C72727"/>
<path d="M15.5053 17.3435C15.5194 17.2902 15.5291 17.2347 15.5326 17.177L15.8069 12.6821C15.8252 12.3808 15.8509 11.8901 15.864 11.5883L16.0659 6.95498C16.0755 6.73506 15.9977 6.52724 15.847 6.36987C15.6963 6.21244 15.4921 6.12573 15.2719 6.12573H2.72816C2.50758 6.12573 2.30352 6.21271 2.15362 6.37063C2.00371 6.52855 1.92748 6.73686 1.93898 6.95717L2.47208 17.1744C2.47508 17.2324 2.48429 17.2881 2.49798 17.3416C1.45377 17.9687 0.753372 19.112 0.753372 20.4161C0.753372 22.3923 2.36133 24.0001 4.33775 24.0001C5.37024 24.0001 6.30151 23.5608 6.95621 22.8601C6.97001 22.8607 6.98342 22.8623 6.99755 22.8623H11.0458C11.7003 23.5617 12.6306 24.0001 13.662 24.0001C15.6386 24.0001 17.2466 22.3924 17.2466 20.4161C17.2466 19.1133 16.5477 17.971 15.5053 17.3435ZM4.3378 19.0535C5.08935 19.0535 5.7008 19.6647 5.7008 20.4161C5.7008 21.1674 5.08935 21.7786 4.3378 21.7786C3.58653 21.7786 2.97534 21.1674 2.97534 20.4161C2.97534 19.6647 3.58653 19.0535 4.3378 19.0535ZM13.662 19.0535C14.4135 19.0535 15.025 19.6647 15.025 20.4161C15.025 21.1674 14.4135 21.7786 13.662 21.7786C12.9107 21.7786 12.2995 21.1674 12.2995 20.4161C12.2995 19.6647 12.9107 19.0535 13.662 19.0535Z" fill="#C72727"/>
</svg>
